/* XPM */
static char * close_pressed_xpm[] = {
"25 26 14 1",
" 	c None",
".	c #1D8ECE",
"+	c #345F87",
"@	c #483649",
"#	c #541E23",
"$	c #591516",
"%	c #2877AC",
"&	c #4C2E3C",
"*	c #5A1414",
"=	c #541E24",
"-	c #A52525",
";	c #A72525",
">	c #FDFDFD",
",	c #D43D3D",
".........................",
".........................",
".........................",
".........................",
".........................",
".........+@#$#@+.........",
".......%&*******&%.......",
"......%=*********=%......",
"......&***********&......",
".....+***--***--***+.....",
".....@***;>-*->-***@.....",
".....#****->,>-****#.....",
".....$*****,>,*****$.....",
".....#****->,>-****#.....",
".....@***->-*;>-***@.....",
".....+***;-***;;***+.....",
"......&***********&......",
"......%=*********=%......",
".......%&*******&%.......",
".........+@#$#@+.........",
".........................",
".........................",
".........................",
".........................",
".........................",
"........................."};
