/* XPM */
static char * hide_pressed_xpm[] = {
"25 26 10 1",
" 	c None",
".	c #1D8ECE",
"+	c #1971A3",
"@	c #17597E",
"#	c #154A68",
"$	c #154460",
"%	c #1B80B9",
"&	c #165477",
"*	c #15445F",
"=	c #FDFDFD",
".........................",
".........................",
".........................",
".........................",
".........................",
".........+@#$#@+.........",
".......%&*******&%.......",
"......%#*********#%......",
"......&***********&......",
".....+*************+.....",
".....@*************@.....",
".....#*************#.....",
".....$***=======***$.....",
".....#*************#.....",
".....@*************@.....",
".....+*************+.....",
"......&***********&......",
"......%#*********#%......",
".......%&*******&%.......",
".........+@#$#@+.........",
".........................",
".........................",
".........................",
".........................",
".........................",
"........................."};
