/* XPM */
static char * maximize_active_xpm[] = {
"25 26 10 1",
" 	c None",
".	c #1D8ECE",
"+	c #357BA3",
"@	c #61686D",
"#	c #5E5E5E",
"$	c #2885B9",
"%	c #636363",
"&	c #FFFFFF",
"*	c #60696E",
"=	c #5F5F5F",
".........................",
".........................",
".........................",
".........................",
".........................",
".........+@###@+.........",
".......$%#######%$.......",
"......$###########$......",
"......%###########%......",
".....+###&&&&&&&###+.....",
".....@###&#####&###*.....",
".....####&#####&####.....",
".....####&#####&####.....",
".....####&#####&###=.....",
".....@###&#####&###*.....",
".....+###&&&&&&&###+.....",
"......%###########%......",
"......$###########$......",
".......$%#######%$.......",
".........+*###*+.........",
".........................",
".........................",
".........................",
".........................",
".........................",
"........................."};
