/* XPM */
static char * maximize_prelight_xpm[] = {
"25 26 10 1",
" 	c None",
".	c #1D8ECE",
"+	c #1B85C1",
"@	c #1A7EB7",
"#	c #1978AF",
"$	c #1978AE",
"%	c #1C8AC8",
"&	c #197CB5",
"*	c #FFFFFF",
"=	c #1979AF",
".........................",
".........................",
".........................",
".........................",
".........................",
".........+@#$#@+.........",
".......%&$$$$$$$&%.......",
"......%#$$$$$$$$$#%......",
"......&$$$$$$$$$$$&......",
".....+$$$*******$$$+.....",
".....@$$$*$$$$$*$$$@.....",
".....#$$$*$$$$$*$$$=.....",
".....$$$$*$$$$$*$$$$.....",
".....#$$$*$$$$$*$$$#.....",
".....@$$$*$$$$$*$$$@.....",
".....+$$$*******$$$+.....",
"......&$$$$$$$$$$$&......",
"......%#$$$$$$$$$#%......",
".......%&$$$$$$$&%.......",
".........+@=$=@+.........",
".........................",
".........................",
".........................",
".........................",
".........................",
"........................."};
