/* XPM */
static char * C:\Shared\xfwm4\maximize_inactive_xpm[] = {
"25 26 16 1",
" 	c None",
".	c #F1F1F1",
"+	c #FDFDFD",
"@	c #C3C3C3",
"#	c #A4A4A4",
"$	c #929292",
"%	c #8C8C8C",
"&	c #C4C4C4",
"*	c #D4D4D4",
"=	c #9A9A9A",
"-	c #898989",
";	c #919191",
">	c #9B9B9B",
",	c #A5A5A5",
"'	c #939393",
")	c #D8D8D8",
".........................",
"+++++++++++++++++++++++++",
"+++++++++++++++++++++++++",
"+++++++++++++++++++++++++",
"+++++++++++++++++++++++++",
"+++++++++@#$%$#&+++++++++",
"+++++++*=-------=*+++++++",
"++++++*;---------;*++++++",
"++++++=----------->++++++",
"+++++@---+++++++---&+++++",
"+++++#---+-----+---,+++++",
"+++++;---+-----+---;+++++",
"+++++%---+-----+---%+++++",
"+++++$---+-----+---'+++++",
"+++++#---+-----+---,+++++",
"+++++&---+++++++---&+++++",
"++++++=----------->++++++",
"++++++*;---------;)++++++",
"+++++++*>------->*+++++++",
"+++++++++&,;%;,&+++++++++",
"+++++++++++++++++++++++++",
"+++++++++++++++++++++++++",
"+++++++++++++++++++++++++",
"+++++++++++++++++++++++++",
"+++++++++++++++++++++++++",
"+++++++++++++++++++++++++"};
