/* XPM */
static char * C:\Users\crime\Shared\xfwm4\menu_inactive_xpm[] = {
"25 26 7 1",
" 	c None",
".	c #1F1F1F",
"+	c #484848",
"@	c #595959",
"#	c #797979",
"$	c #868686",
"%	c #898989",
".........................",
"+++++++++++++++++++++++++",
"+++++++++++++++++++++++++",
"+++++++++++++++++++++++++",
"+++++++++++++++++++++++++",
"+++++++++++++++++++++++++",
"+++++++++++++++++++++++++",
"+++++++++++++++++++++++++",
"+++++++++++++++++++++++++",
"+++++++++@#$$#@++++++++++",
"++++++++@$%%%%$@+++++++++",
"++++++++#%%%%%%#+++++++++",
"++++++++$%%%%%%$+++++++++",
"++++++++$%%%%%%$+++++++++",
"++++++++#%%%%%%#+++++++++",
"++++++++@$%%%%$@+++++++++",
"+++++++++@#$$#@++++++++++",
"+++++++++++++++++++++++++",
"+++++++++++++++++++++++++",
"+++++++++++++++++++++++++",
"+++++++++++++++++++++++++",
"+++++++++++++++++++++++++",
"+++++++++++++++++++++++++",
"+++++++++++++++++++++++++",
"+++++++++++++++++++++++++",
"+++++++++++++++++++++++++"};
