/* XPM */
static char * menu_pressed_xpm[] = {
"25 26 7 1",
" 	c None",
".	c #1D8ECE",
"+	c #1B80B9",
"@	c #175B81",
"#	c #164561",
"$	c #164662",
"%	c #15445F",
".........................",
".........................",
".........................",
".........................",
".........................",
".........................",
".........................",
".........................",
".........................",
".........+@##@+..........",
"........+$%%%%$+.........",
"........@%%%%%%@.........",
"........#%%%%%%#.........",
"........#%%%%%%#.........",
"........@%%%%%%@.........",
"........+$%%%%$+.........",
".........+@##@+..........",
".........................",
".........................",
".........................",
".........................",
".........................",
".........................",
".........................",
".........................",
"........................."};
