/* XPM */
static char * C:\Shared\xfwm4\right_active_xpm[] = {
"2 24 3 1",
" 	c None",
".	c #FDFDFD",
"+	c #1D8ECE",
".+",
".+",
".+",
".+",
".+",
".+",
".+",
".+",
".+",
".+",
".+",
".+",
".+",
".+",
".+",
".+",
".+",
".+",
".+",
".+",
".+",
".+",
".+",
".+"};
