/* XPM */
static char * C:\Users\crime\Shared\xfwm4\top_right_inactive_xpm[] = {
"4 26 3 1",
" 	c None",
".	c #1F1F1F",
"+	c #484848",
"....",
"+++.",
"+++.",
"+++.",
"+++.",
"+++.",
"+++.",
"+++.",
"+++.",
"+++.",
"+++.",
"+++.",
"+++.",
"+++.",
"+++.",
"+++.",
"+++.",
"+++.",
"+++.",
"+++.",
"+++.",
"+++.",
"+++.",
"+++.",
"+++.",
"+++."};
