/* XPM */
static char * C:\Users\crime\Shared\xfwm4\hide_inactive_xpm[] = {
"25 26 11 1",
" 	c None",
".	c #1F1F1F",
"+	c #484848",
"@	c #676767",
"#	c #7B7B7B",
"$	c #858585",
"%	c #898989",
"&	c #595959",
"*	c #7E7E7E",
"=	c #E3E3E3",
"-	c #E5E5E5",
".........................",
"+++++++++++++++++++++++++",
"+++++++++++++++++++++++++",
"+++++++++++++++++++++++++",
"+++++++++++++++++++++++++",
"+++++++++@#$%$#@+++++++++",
"+++++++&*%%%%%%%*&+++++++",
"++++++&$%%%%%%%%%$&++++++",
"++++++*%%%%%%%%%%%*++++++",
"+++++@%%%%%%%%%%%%%@+++++",
"+++++#%%%%%%%%%%%%%#+++++",
"+++++$%%%%%%%%%%%%%$+++++",
"+++++%%%%=------%%%%+++++",
"+++++$%%%%%%%%%%%%%$+++++",
"+++++#%%%%%%%%%%%%%#+++++",
"+++++@%%%%%%%%%%%%%@+++++",
"++++++*%%%%%%%%%%%*++++++",
"++++++&$%%%%%%%%%$&++++++",
"+++++++&*%%%%%%%*&+++++++",
"+++++++++@#$%$#@+++++++++",
"+++++++++++++++++++++++++",
"+++++++++++++++++++++++++",
"+++++++++++++++++++++++++",
"+++++++++++++++++++++++++",
"+++++++++++++++++++++++++",
"+++++++++++++++++++++++++"};
