/* XPM */
static char * C:\Shared\xfwm4\close_active_xpm[] = {
"25 26 23 1",
" 	c None",
".	c #1D8ECE",
"+	c #FDFDFD",
"@	c #D5D5D5",
"#	c #A3A3A3",
"$	c #737373",
"%	c #555555",
"&	c #4A4A4A",
"*	c #727272",
"=	c #A4A4A4",
"-	c #C3C3C3",
";	c #636363",
">	c #484848",
",	c #535353",
"'	c #545454",
")	c #656565",
"!	c #929292",
"~	c #565656",
"{	c #4B4B4B",
"]	c #939393",
"^	c #A5A5A5",
"/	c #646464",
"(	c #C4C4C4",
".........................",
"+++++++++++++++++++++++++",
"+++++++++++++++++++++++++",
"+++++++++++++++++++++++++",
"+++++++++++++++++++++++++",
"++++++++@#$%&%*=@++++++++",
"+++++++-;>>>>>>>;-+++++++",
"++++++-,>>>>>>>>>'-++++++",
"+++++@;>>>>>>>>>>>)@+++++",
"+++++#>>>*$>>>**>>>=+++++",
"+++++$>>>$+*>*+*>>>$+++++",
"+++++%>>>>*+!+*>>>>~+++++",
"+++++{>>>>>!+!>>>>>{+++++",
"+++++%>>>>*+]+*>>>>~+++++",
"+++++*>>>*+*>$+$>>>$+++++",
"+++++=>>>$*>>>$$>>>^+++++",
"+++++@;>>>>>>>>>>>/@+++++",
"++++++-'>>>>>>>>>'(++++++",
"+++++++-)>>>>>>>/-+++++++",
"++++++++@=$~{~$^@++++++++",
"+++++++++++++++++++++++++",
"+++++++++++++++++++++++++",
"+++++++++++++++++++++++++",
"+++++++++++++++++++++++++",
"+++++++++++++++++++++++++",
"+++++++++++++++++++++++++"};
