/* XPM */
static char * C:\Shared\xfwm4\close_pressed_xpm[] = {
"25 26 21 1",
" 	c None",
".	c #1D8ECE",
"+	c #FDFDFD",
"@	c #DB5B5B",
"#	c #A52525",
"$	c #741A1A",
"%	c #5F1515",
"&	c #DB5D5D",
"*	c #E79292",
"=	c #8A1F1F",
"-	c #5A1414",
";	c #6F1919",
">	c #E79393",
",	c #8C1F1F",
"'	c #A72525",
")	c #D43D3D",
"!	c #601515",
"~	c #A92525",
"{	c #DB5E5E",
"]	c #8F2020",
"^	c #E89595",
".........................",
"+++++++++++++++++++++++++",
"+++++++++++++++++++++++++",
"+++++++++++++++++++++++++",
"+++++++++++++++++++++++++",
"+++++++++@#$%$#&+++++++++",
"+++++++*=-------=*+++++++",
"++++++*;---------;>++++++",
"++++++=-----------,++++++",
"+++++@---##---##---&+++++",
"+++++#---'+#-#+#---'+++++",
"+++++$----#+)+#----$+++++",
"+++++%-----)+)-----!+++++",
"+++++$----#+)+#----$+++++",
"+++++#---#+#-'+#---~+++++",
"+++++&---'#---''---{+++++",
"++++++=-----------]++++++",
"++++++*;---------;^++++++",
"+++++++>,-------]>+++++++",
"+++++++++&'$%$~{+++++++++",
"+++++++++++++++++++++++++",
"+++++++++++++++++++++++++",
"+++++++++++++++++++++++++",
"+++++++++++++++++++++++++",
"+++++++++++++++++++++++++",
"+++++++++++++++++++++++++"};
