/* XPM */
static char * close_active_xpm[] = {
"25 26 15 1",
" 	c None",
".	c #1D8ECE",
"+	c #2D739B",
"@	c #3B5C6E",
"#	c #444D53",
"$	c #474849",
"%	c #2481B5",
"&	c #3E5765",
"*	c #484848",
"=	c #444E53",
"-	c #727272",
";	c #737373",
">	c #FDFDFD",
",	c #929292",
"'	c #939393",
".........................",
".........................",
".........................",
".........................",
".........................",
".........+@#$#@+.........",
".......%&*******&%.......",
"......%=*********=%......",
"......&***********&......",
".....+***-;***--***+.....",
".....@***;>-*->-***@.....",
".....#****->,>-****#.....",
".....$*****,>,*****$.....",
".....#****->'>-****#.....",
".....@***->-*;>;***@.....",
".....+***;-***;;***+.....",
"......&***********&......",
"......%=*********=%......",
".......%&*******&%.......",
".........+@#$#@+.........",
".........................",
".........................",
".........................",
".........................",
".........................",
"........................."};
