/* XPM */
static char * C:\Shared\xfwm4\close_prelight_xpm[] = {
"25 26 22 1",
" 	c None",
".	c #1D8ECE",
"+	c #FDFDFD",
"@	c #FF9595",
"#	c #FF5E5E",
"$	c #FF3E3E",
"%	c #FF3232",
"&	c #FF9696",
"*	c #FFB7B7",
"=	c #FF4D4D",
"-	c #FF2F2F",
";	c #FF4E4E",
">	c #FF3C3C",
",	c #FF3D3D",
"'	c #FFB8B8",
")	c #FF5F5F",
"!	c #FF8181",
"~	c #FF3F3F",
"{	c #FF3333",
"]	c #FF8282",
"^	c #FF4F4F",
"/	c #FFBEBE",
".........................",
"+++++++++++++++++++++++++",
"+++++++++++++++++++++++++",
"+++++++++++++++++++++++++",
"+++++++++++++++++++++++++",
"+++++++++@#$%$#&+++++++++",
"+++++++*=-------;*+++++++",
"++++++*>---------,'++++++",
"++++++=-----------;++++++",
"+++++@---##---##---&+++++",
"+++++#---)+#-#+#---)+++++",
"+++++$----#+!+#----~+++++",
"+++++{-----!+!-----{+++++",
"+++++$----#+]+#----~+++++",
"+++++#---#+#-)+#---)+++++",
"+++++&---)#---))---&+++++",
"++++++;-----------^++++++",
"++++++*,---------,/++++++",
"+++++++';-------^'+++++++",
"+++++++++&)~{~)&+++++++++",
"+++++++++++++++++++++++++",
"+++++++++++++++++++++++++",
"+++++++++++++++++++++++++",
"+++++++++++++++++++++++++",
"+++++++++++++++++++++++++",
"+++++++++++++++++++++++++"};
