/* XPM */
static char * C:\Shared\xfwm4\close_inactive_xpm[] = {
"25 26 13 1",
" 	c None",
".	c #F1F1F1",
"+	c #FDFDFD",
"@	c #E4E4E4",
"#	c #C4C4C4",
"$	c #A4A4A4",
"%	c #898989",
"&	c #D8D8D8",
"*	c #9A9A9A",
"=	c #9B9B9B",
"-	c #B9B9B9",
";	c #C5C5C5",
">	c #D9D9D9",
".........................",
"+++++++++++++++++++++++++",
"+++++++++++++++++++++++++",
"+++++++++++++++++++++++++",
"+++++++++++++++++++++++++",
"++++++++@#$%%%$#@++++++++",
"+++++++&*%%%%%%%*&+++++++",
"++++++&%%%%%%%%%%%&++++++",
"+++++@*%%%%%%%%%%%=@+++++",
"+++++#%%%$$%%%$$%%%#+++++",
"+++++$%%%$+$%$+$%%%$+++++",
"+++++%%%%%$+-+$%%%%%+++++",
"+++++%%%%%%-+-%%%%%%+++++",
"+++++%%%%%$+-+$%%%%%+++++",
"+++++$%%%$+$%$+$%%%$+++++",
"+++++#%%%$$%%%$$%%%;+++++",
"+++++@*%%%%%%%%%%%=@+++++",
"++++++&%%%%%%%%%%%>++++++",
"+++++++&=%%%%%%%=&+++++++",
"++++++++@#$%%%$;@++++++++",
"+++++++++++++++++++++++++",
"+++++++++++++++++++++++++",
"+++++++++++++++++++++++++",
"+++++++++++++++++++++++++",
"+++++++++++++++++++++++++",
"+++++++++++++++++++++++++"};
