/* XPM */
static char * C:\Shared\xfwm4\hide_inactive_xpm[] = {
"25 26 25 1",
" 	c None",
".	c #F5F5F5",
"+	c #FEFEFE",
"@	c #CBCBCB",
"#	c #B1B1B1",
"$	c #898989",
"%	c #AFAFAF",
"&	c #CACACA",
"*	c #DEDEDE",
"=	c #A7A7A7",
"-	c #A1A1A1",
";	c #D9D9D9",
">	c #E5E5E5",
",	c #9B9B9B",
"'	c #CDCDCD",
")	c #C9C9C9",
"!	c #B2B2B2",
"~	c #E3E3E3",
"{	c #8A8A8A",
"]	c #B3B3B3",
"^	c #AAAAAA",
"/	c #ECECEC",
"(	c #DADADA",
"_	c #CCCCCC",
":	c #B0B0B0",
".........................",
"+++++++++++++++++++++++++",
"+++++++++++++++++++++++++",
"+++++++++++++++++++++++++",
"+++++++++++++++++++++++++",
"+++++++++@#$$$%&+++++++++",
"+++++++*=$$$$$$$-;+++++++",
"++++++>$$$$$$$$$$$;++++++",
"++++++=$$$$$$$$$$$,++++++",
"+++++'$$$$$$$$$$$$$)+++++",
"+++++!$$$$$$$$$$$$$%+++++",
"+++++$$$$$$$$$$$$$$$+++++",
"+++++$$$$~>>>>>>$$$$+++++",
"+++++{$$$$$$$$$$$$$$+++++",
"+++++]$$$$$$$$$$$$$%+++++",
"+++++'$$$$$$$$$$$$$)+++++",
"++++++^$$$$$$$$$$$-++++++",
"++++++/$$$$$$$$$$$;++++++",
"+++++++>=$$$$$$$,(+++++++",
"+++++++++_!$$$:@+++++++++",
"+++++++++++++++++++++++++",
"+++++++++++++++++++++++++",
"+++++++++++++++++++++++++",
"+++++++++++++++++++++++++",
"+++++++++++++++++++++++++",
"+++++++++++++++++++++++++"};
