/* XPM */
static char * C:\Shared\xfwm4\hide_active_xpm[] = {
"25 26 38 1",
" 	c None",
".	c #1D8ECE",
"+	c #FDFDFD",
"@	c #ADADAD",
"#	c #848484",
"$	c #696969",
"%	c #616161",
"&	c #6A6A6A",
"*	c #818181",
"=	c #ABABAB",
"-	c #CACACA",
";	c #777777",
">	c #5E5E5E",
",	c #757575",
"'	c #C4C4C4",
")	c #D6D6D6",
"!	c #676767",
"~	c #787878",
"{	c #737373",
"]	c #AFAFAF",
"^	c #AAAAAA",
"/	c #858585",
"(	c #7F7F7F",
"_	c #6C6C6C",
":	c #656565",
"<	c #626262",
"[	c #606060",
"}	c #6E6E6E",
"|	c #878787",
"1	c #B0B0B0",
"2	c #797979",
"3	c #E1E1E1",
"4	c #747474",
"5	c #C5C5C5",
"6	c #AEAEAE",
"7	c #6B6B6B",
"8	c #828282",
"9	c #ACACAC",
".........................",
"+++++++++++++++++++++++++",
"+++++++++++++++++++++++++",
"+++++++++++++++++++++++++",
"+++++++++++++++++++++++++",
"+++++++++@#$%&*=+++++++++",
"+++++++-;>>>>>>>,'+++++++",
"++++++)&>>>>>>>>>!'++++++",
"++++++~>>>>>>>>>>>{++++++",
"+++++]>>>>>>>>>>>>>^+++++",
"+++++/>>>>>>>>>>>>>(+++++",
"+++++_>>>>>>>>>>>>>!+++++",
"+++++:>>>+++++++<>>[+++++",
"+++++}>>>>>>>>>>>>>!+++++",
"+++++|>>>>>>>>>>>>>(+++++",
"+++++1>>>>>>>>>>>>>^+++++",
"++++++2>>>>>>>>>>>,++++++",
"++++++3$>>>>>>>>>!'++++++",
"+++++++)~>>>>>>>45+++++++",
"+++++++++6/7%$89+++++++++",
"+++++++++++++++++++++++++",
"+++++++++++++++++++++++++",
"+++++++++++++++++++++++++",
"+++++++++++++++++++++++++",
"+++++++++++++++++++++++++",
"+++++++++++++++++++++++++"};
