/* XPM */
static char * C:\Shared\xfwm4\hide_prelight_xpm[] = {
"25 26 32 1",
" 	c None",
".	c #1D8ECE",
"+	c #FDFDFD",
"@	c #5EB6E8",
"#	c #259DE0",
"$	c #1B86C2",
"%	c #197DB5",
"&	c #1B85C0",
"*	c #229BE0",
"=	c #5BB5E8",
"-	c #83C7EE",
";	c #1E92D4",
">	c #1978AE",
",	c #1D90D0",
"'	c #81C6ED",
")	c #85C8EE",
"!	c #1B82BD",
"~	c #80C6ED",
"{	c #1E93D5",
"]	c #1D8FCF",
"^	c #63B8E9",
"/	c #279DE1",
"(	c #1F9ADF",
"_	c #1C87C3",
":	c #1A81BB",
"<	c #1A80BA",
"[	c #1979B0",
"}	c #1C89C7",
"|	c #299EE1",
"1	c #219BE0",
"2	c #64B9E9",
"3	c #61B8E9",
".........................",
"+++++++++++++++++++++++++",
"+++++++++++++++++++++++++",
"+++++++++++++++++++++++++",
"+++++++++++++++++++++++++",
"+++++++++@#$%&*=+++++++++",
"+++++++-;>>>>>>>,'+++++++",
"++++++)&>>>>>>>>>!~++++++",
"++++++{>>>>>>>>>>>]++++++",
"+++++^>>>>>>>>>>>>>=+++++",
"+++++/>>>>>>>>>>>>>(+++++",
"+++++_>>>>>>>>>>>>>:+++++",
"+++++<>>>+++++++%>>[+++++",
"+++++}>>>>>>>>>>>>>!+++++",
"+++++|>>>>>>>>>>>>>1+++++",
"+++++2>>>>>>>>>>>>>=+++++",
"++++++{>>>>>>>>>>>,++++++",
"++++++)$>>>>>>>>>!'++++++",
"+++++++){>>>>>>>]'+++++++",
"+++++++++3#&%$*@+++++++++",
"+++++++++++++++++++++++++",
"+++++++++++++++++++++++++",
"+++++++++++++++++++++++++",
"+++++++++++++++++++++++++",
"+++++++++++++++++++++++++",
"+++++++++++++++++++++++++"};
