/* XPM */
static char * hide_prelight_xpm[] = {
"25 26 9 1",
" 	c None",
".	c #1D8ECE",
"+	c #1B85C1",
"@	c #1A7EB7",
"#	c #1979B0",
"$	c #1978AE",
"%	c #1C8AC8",
"&	c #197CB5",
"*	c #FDFDFD",
".........................",
".........................",
".........................",
".........................",
".........................",
".........+@#$#@+.........",
".......%&$$$$$$$&%.......",
"......%#$$$$$$$$$#%......",
"......&$$$$$$$$$$$&......",
".....+$$$$$$$$$$$$$+.....",
".....@$$$$$$$$$$$$$@.....",
".....#$$$$$$$$$$$$$#.....",
".....$$$$*******$$$$.....",
".....#$$$$$$$$$$$$$#.....",
".....@$$$$$$$$$$$$$@.....",
".....+$$$$$$$$$$$$$+.....",
"......&$$$$$$$$$$$&......",
"......%#$$$$$$$$$#%......",
".......%&$$$$$$$&%.......",
".........+@#$#@+.........",
".........................",
".........................",
".........................",
".........................",
".........................",
"........................."};
