/* XPM */
static char * C:\Shared\xfwm4\hide_pressed_xpm[] = {
"25 26 34 1",
" 	c None",
".	c #1D8ECE",
"+	c #FDFDFD",
"@	c #2988BE",
"#	c #1E638B",
"$	c #184F6E",
"%	c #154662",
"&	c #1E6288",
"*	c #2885B9",
"=	c #379BD3",
"-	c #1B597C",
";	c #15445F",
">	c #1A5678",
",	c #349AD3",
"'	c #389BD4",
")	c #174C6A",
"!	c #3399D3",
"~	c #1C5B7E",
"{	c #2989BF",
"]	c #2884B8",
"^	c #1F658D",
"/	c #1D6086",
"(	c #195171",
"_	c #174B68",
":	c #164864",
"<	c #195272",
"[	c #1F678F",
"}	c #2A8AC0",
"|	c #1C5B80",
"1	c #59A4D7",
"2	c #1B577A",
"3	c #359AD3",
"4	c #1E648C",
"5	c #2986BB",
".........................",
"+++++++++++++++++++++++++",
"+++++++++++++++++++++++++",
"+++++++++++++++++++++++++",
"+++++++++++++++++++++++++",
"+++++++++@#$%$&*+++++++++",
"+++++++=-;;;;;;;>,+++++++",
"++++++'$;;;;;;;;;)!++++++",
"++++++~;;;;;;;;;;;>++++++",
"+++++{;;;;;;;;;;;;;]+++++",
"+++++^;;;;;;;;;;;;;/+++++",
"+++++(;;;;;;;;;;;;;)+++++",
"+++++_;;;+++++++:;;;+++++",
"+++++<;;;;;;;;;;;;;)+++++",
"+++++[;;;;;;;;;;;;;&+++++",
"+++++};;;;;;;;;;;;;]+++++",
"++++++|;;;;;;;;;;;>++++++",
"++++++1$;;;;;;;;;),++++++",
"+++++++'~;;;;;;;23+++++++",
"+++++++++@4$%$&5+++++++++",
"+++++++++++++++++++++++++",
"+++++++++++++++++++++++++",
"+++++++++++++++++++++++++",
"+++++++++++++++++++++++++",
"+++++++++++++++++++++++++",
"+++++++++++++++++++++++++"};
