/* XPM */
static char * C:\Shared\xfwm4\maximize_active_xpm[] = {
"25 26 18 1",
" 	c None",
".	c #1D8ECE",
"+	c #FDFDFD",
"@	c #ACACAC",
"#	c #828282",
"$	c #6A6A6A",
"%	c #616161",
"&	c #ADADAD",
"*	c #C5C5C5",
"=	c #757575",
"-	c #5E5E5E",
";	c #686868",
">	c #767676",
",	c #838383",
"'	c #696969",
")	c #6B6B6B",
"!	c #848484",
"~	c #CACACA",
".........................",
"+++++++++++++++++++++++++",
"+++++++++++++++++++++++++",
"+++++++++++++++++++++++++",
"+++++++++++++++++++++++++",
"+++++++++@#$%$#&+++++++++",
"+++++++*=-------=*+++++++",
"++++++*;---------;*++++++",
"++++++=----------->++++++",
"+++++@---+++++++---&+++++",
"+++++#---+-----+---,+++++",
"+++++'---+-----+---'+++++",
"+++++%---+-----+---%+++++",
"+++++$---+-----+---)+++++",
"+++++#---+-----+---!+++++",
"+++++&---+++++++---&+++++",
"++++++=----------->++++++",
"++++++*;---------;~++++++",
"+++++++*>------->*+++++++",
"+++++++++&,'%'!&+++++++++",
"+++++++++++++++++++++++++",
"+++++++++++++++++++++++++",
"+++++++++++++++++++++++++",
"+++++++++++++++++++++++++",
"+++++++++++++++++++++++++",
"+++++++++++++++++++++++++"};
