/* XPM */
static char * maximize_pressed_xpm[] = {
"25 26 14 1",
" 	c None",
".	c #1D8ECE",
"+	c #1F6D99",
"@	c #174C6B",
"#	c #154460",
"$	c #15445F",
"%	c #174D6B",
"&	c #1F6E9A",
"*	c #2786BC",
"=	c #164864",
"-	c #164865",
";	c #FFFFFF",
">	c #174D6C",
",	c #2887BC",
".........................",
".........................",
".........................",
".........................",
".........................",
".........+@#$#%&.........",
".......*=$$$$$$$=*.......",
"......*$$$$$$$$$$#*......",
"......=$$$$$$$$$$$-......",
".....+$$$;;;;;;;$$$&.....",
".....@$$$;$$$$$;$$$>.....",
".....#$$$;$$$$$;$$$#.....",
".....$$$$;$$$$$;$$$$.....",
".....#$$$;$$$$$;$$$#.....",
".....%$$$;$$$$$;$$$>.....",
".....&$$$;;;;;;;$$$&.....",
"......=$$$$$$$$$$$-......",
"......*#$$$$$$$$$#,......",
".......*-$$$$$$$-*.......",
".........&>#$#>&.........",
".........................",
".........................",
".........................",
".........................",
".........................",
"........................."};
