/* XPM */
static char * C:\Shared\xfwm4\maximize_prelight_xpm[] = {
"25 26 18 1",
" 	c None",
".	c #1D8ECE",
"+	c #FDFDFD",
"@	c #5EB6E8",
"#	c #229BE0",
"$	c #1B85C0",
"%	c #197DB5",
"&	c #83C7EE",
"*	c #1D90D0",
"=	c #1978AE",
"-	c #1B82BD",
";	c #1E91D2",
">	c #60B7E9",
",	c #219BE0",
"'	c #249CE0",
")	c #1B83BF",
"!	c #1B86C2",
"~	c #259DE0",
".........................",
"+++++++++++++++++++++++++",
"+++++++++++++++++++++++++",
"+++++++++++++++++++++++++",
"+++++++++++++++++++++++++",
"+++++++++@#$%$#@+++++++++",
"+++++++&*=======*&+++++++",
"++++++&-=========-&++++++",
"++++++*===========;++++++",
"+++++@===+++++++===>+++++",
"+++++,===+=====+==='+++++",
"+++++)===+=====+===!+++++",
"+++++%===+=====+===%+++++",
"+++++$===+=====+===$+++++",
"+++++#===+=====+===~+++++",
"+++++@===+++++++===@+++++",
"++++++*===========*++++++",
"++++++&-=========-&++++++",
"+++++++&;=======*&+++++++",
"+++++++++>'!%!~@+++++++++",
"+++++++++++++++++++++++++",
"+++++++++++++++++++++++++",
"+++++++++++++++++++++++++",
"+++++++++++++++++++++++++",
"+++++++++++++++++++++++++",
"+++++++++++++++++++++++++"};
