/* XPM */
static char * C:\Shared\xfwm4\maximize_pressed_xpm[] = {
"25 26 21 1",
" 	c None",
".	c #1D8ECE",
"+	c #FDFDFD",
"@	c #2986BB",
"#	c #1E6288",
"$	c #184F6E",
"%	c #154662",
"&	c #1E6389",
"*	c #2987BC",
"=	c #359AD3",
"-	c #1A5779",
";	c #15445F",
">	c #1B577A",
",	c #174C6A",
"'	c #174D6C",
")	c #1B587B",
"!	c #1E638B",
"~	c #184E6D",
"{	c #1E648C",
"]	c #1B597C",
"^	c #379BD3",
".........................",
"+++++++++++++++++++++++++",
"+++++++++++++++++++++++++",
"+++++++++++++++++++++++++",
"+++++++++++++++++++++++++",
"+++++++++@#$%$&*+++++++++",
"+++++++=-;;;;;;;>=+++++++",
"++++++=,;;;;;;;;;'=++++++",
"++++++-;;;;;;;;;;;)++++++",
"+++++@;;;+++++++;;;*+++++",
"+++++#;;;+;;;;;+;;;!+++++",
"+++++~;;;+;;;;;+;;;$+++++",
"+++++%;;;+;;;;;+;;;%+++++",
"+++++$;;;+;;;;;+;;;$+++++",
"+++++&;;;+;;;;;+;;;{+++++",
"+++++*;;;+++++++;;;*+++++",
"++++++>;;;;;;;;;;;]++++++",
"++++++=';;;;;;;;;'^++++++",
"+++++++=);;;;;;;]=+++++++",
"+++++++++*!$%$!*+++++++++",
"+++++++++++++++++++++++++",
"+++++++++++++++++++++++++",
"+++++++++++++++++++++++++",
"+++++++++++++++++++++++++",
"+++++++++++++++++++++++++",
"+++++++++++++++++++++++++"};
