/* XPM */
static char * C:\Shared\xfwm4\menu_pressed_xpm[] = {
"25 26 9 1",
" 	c None",
".	c #1D8ECE",
"+	c #FDFDFD",
"@	c #E7E8EA",
"#	c #878F98",
"$	c #365268",
"%	c #385369",
"&	c #15445F",
"*	c #385368",
".........................",
"+++++++++++++++++++++++++",
"+++++++++++++++++++++++++",
"+++++++++++++++++++++++++",
"+++++++++++++++++++++++++",
"+++++++++++++++++++++++++",
"+++++++++++++++++++++++++",
"+++++++++++++++++++++++++",
"+++++++++++++++++++++++++",
"+++++++++@#$$#@++++++++++",
"++++++++@%&&&&%@+++++++++",
"++++++++#&&&&&&#+++++++++",
"++++++++$&&&&&&$+++++++++",
"++++++++$&&&&&&$+++++++++",
"++++++++#&&&&&&#+++++++++",
"++++++++@*&&&&*@+++++++++",
"+++++++++@#$$#@++++++++++",
"+++++++++++++++++++++++++",
"+++++++++++++++++++++++++",
"+++++++++++++++++++++++++",
"+++++++++++++++++++++++++",
"+++++++++++++++++++++++++",
"+++++++++++++++++++++++++",
"+++++++++++++++++++++++++",
"+++++++++++++++++++++++++",
"+++++++++++++++++++++++++"};
