/* XPM */
static char * C:\Shared\xfwm4\menu_inactive_xpm[] = {
"25 26 8 1",
" 	c None",
".	c #F1F1F1",
"+	c #FDFDFD",
"@	c #EDEDED",
"#	c #ABABAB",
"$	c #8D8D8D",
"%	c #8E8E8E",
"&	c #898989",
".........................",
"+++++++++++++++++++++++++",
"+++++++++++++++++++++++++",
"+++++++++++++++++++++++++",
"+++++++++++++++++++++++++",
"+++++++++++++++++++++++++",
"+++++++++++++++++++++++++",
"+++++++++++++++++++++++++",
"+++++++++++++++++++++++++",
"+++++++++@#$$#@++++++++++",
"++++++++@%&&&&%@+++++++++",
"++++++++#&&&&&&#+++++++++",
"++++++++$&&&&&&$+++++++++",
"++++++++$&&&&&&$+++++++++",
"++++++++#&&&&&&#+++++++++",
"++++++++@%&&&&%@+++++++++",
"+++++++++@#$$#@++++++++++",
"+++++++++++++++++++++++++",
"+++++++++++++++++++++++++",
"+++++++++++++++++++++++++",
"+++++++++++++++++++++++++",
"+++++++++++++++++++++++++",
"+++++++++++++++++++++++++",
"+++++++++++++++++++++++++",
"+++++++++++++++++++++++++",
"+++++++++++++++++++++++++"};
