/* XPM */
static char * C:\Shared\xfwm4\top_left_inactive_xpm[] = {
"4 26 3 1",
" 	c None",
".	c #F1F1F1",
"+	c #FDFDFD",
"....",
".+++",
".+++",
".+++",
".+++",
".+++",
".+++",
".+++",
".+++",
".+++",
".+++",
".+++",
".+++",
".+++",
".+++",
".+++",
".+++",
".+++",
".+++",
".+++",
".+++",
".+++",
".+++",
".+++",
".+++",
".+++"};
