/* XPM */
static char * C:\Shared\xfwm4\top_left_active_xpm[] = {
"4 26 3 1",
" 	c None",
".	c #1D8ECE",
"+	c #FDFDFD",
"....",
".+++",
".+++",
".+++",
".+++",
".+++",
".+++",
".+++",
".+++",
".+++",
".+++",
".+++",
".+++",
".+++",
".+++",
".+++",
".+++",
".+++",
".+++",
".+++",
".+++",
".+++",
".+++",
".+++",
".+++",
".+++"};
