/* XPM */
static char * menu_active_xpm[] = {
"25 26 6 1",
" 	c None",
".	c #1D8ECE",
"+	c #2885B9",
"@	c #496D81",
"#	c #5E5E5E",
"$	c #5F5F5F",
".........................",
".........................",
".........................",
".........................",
".........................",
".........................",
".........................",
".........................",
".........................",
".........+@##@+..........",
"........+$####$+.........",
"........@######@.........",
"........########.........",
"........########.........",
"........@######@.........",
"........+$####$+.........",
".........+@##@+..........",
".........................",
".........................",
".........................",
".........................",
".........................",
".........................",
".........................",
".........................",
"........................."};
